<svg width="75px" height="68px" viewBox="149 566 75 68" version="1.1" xmlns="http://www.w3.org/2000/svg" xmlns:xlink="http://www.w3.org/1999/xlink">
    <!-- Generator: Sketch 42 (36781) - http://www.bohemiancoding.com/sketch -->
    <desc>Created with Sketch.</desc>
    <defs>
        <linearGradient x1="25.7415893%" y1="10.3379543%" x2="126.445553%" y2="151.686629%" id="linearGradient-1">
            <stop stop-color="#FFF965" offset="0%"></stop>
            <stop stop-color="#FFD43B" offset="100%"></stop>
        </linearGradient>
        <linearGradient x1="15.9104009%" y1="0%" x2="126.445553%" y2="151.686629%" id="linearGradient-2">
            <stop stop-color="#FFF965" offset="0%"></stop>
            <stop stop-color="#FDDE32" offset="100%"></stop>
        </linearGradient>
    </defs>
    <g id="椭圆形" stroke="none" fill="none" transform="translate(149.000000, 566.000000)" fill-rule="evenodd">
        <path d="M38.0139122,66.5180999 C65.6269512,62.7696678 74.1431905,46.4443366 74.1431905,28.1194208 C74.1431905,9.7945049 65.2759958,4.05254351 52.113634,0.633892904 C31.2091281,-3.23417448 3.20512565,18.1891302 0.785369232,37.7498561 C-1.63438718,57.310582 10.4008732,70.2665321 38.0139122,66.5180999 Z" id="Oval" fill="url(#linearGradient-1)"></path>
        <path d="M36.4544824,63.7616583 C62.9202083,60.1689724 71.0826005,44.5219536 71.0826005,26.9584322 C71.0826005,9.39491087 62.583835,3.89152618 49.9683652,0.614919431 C29.9324349,-3.09243097 3.09199001,17.4407422 0.772773711,36.188726 C-1.54644258,54.9367099 9.98875649,67.3543443 36.4544824,63.7616583 Z" id="Oval" fill="url(#linearGradient-2)"></path>
        <path d="M17.4573092,13.95922 C19.4714563,12.3745947 25.356648,10.9964288 27.8039801,10.8735977 C30.2513122,10.7507666 35.8135484,11.1115701 38.2749477,12.1171291 C39.9484601,12.8008115 40.5265438,15.7320093 38.8293369,17.1247143 C36.0308518,19.4211133 34.605299,18.4359798 29.4035909,19.9814293 C24.2018828,21.5268788 21.9326793,23.7702965 17.9944299,23.0880057 C13.3553592,22.2842995 13.3789917,17.167826 17.4573092,13.95922 Z" id="Rectangle" fill="#FFFFFF" transform="translate(27.152587, 17.032169) rotate(-21.000000) translate(-27.152587, -17.032169) "></path>
        <path d="M11.2483956,38.2514828 C13.0306635,39.1924107 16.2257311,39.1034479 17.3805551,36.4474579 C18.1292319,34.7255694 17.9690107,33.2563125 17.0340126,32.1076729 C16.140169,31.0095915 14.8575796,30.0883815 14.1181205,29.7979431 C11.9415769,28.9430593 7.93121738,29.2255873 7.94489582,32.9445756 C7.95784285,36.4647008 9.46612769,37.310555 11.2483956,38.2514828 Z" id="Oval-2" fill="#FFFFFF" transform="translate(12.898883, 34.096390) rotate(-51.000000) translate(-12.898883, -34.096390) "></path>
    </g>
</svg>
